<?xml version="1.0" standalone="no"?>
<!DOCTYPE svg PUBLIC "-//W3C//DTD SVG 20010904//EN"
 "http://www.w3.org/TR/2001/REC-SVG-20010904/DTD/svg10.dtd">
<svg version="1.0" xmlns="http://www.w3.org/2000/svg"
 width="1232.000000pt" height="1232.000000pt" viewBox="0 0 1232.000000 1232.000000"
 preserveAspectRatio="xMidYMid meet">
<metadata>
Created by potrace 1.14, written by Peter Selinger 2001-2017
</metadata>
<g transform="translate(0.000000,1232.000000) scale(0.100000,-0.100000)"
fill="#000000" stroke="none">
<path d="M5029 12316 c-2 -2 -29 -6 -59 -10 -102 -11 -125 -14 -195 -31 -38
-10 -77 -18 -85 -20 -8 -2 -16 -4 -17 -5 -2 -2 -6 -3 -10 -4 -113 -29 -382
-148 -448 -199 -5 -4 -35 -24 -66 -45 -179 -119 -366 -305 -483 -482 -20 -30
-39 -60 -43 -66 -19 -25 -114 -206 -119 -224 0 -3 -8 -22 -17 -42 -10 -21 -17
-42 -17 -48 0 -6 -4 -18 -9 -28 -23 -42 -72 -224 -86 -318 -3 -23 -9 -59 -13
-80 -8 -45 -8 -9051 0 -9104 3 -19 9 -55 13 -80 5 -36 30 -141 59 -255 2 -5 6
-17 9 -25 3 -8 17 -44 30 -80 44 -119 169 -352 214 -398 7 -7 13 -16 13 -20 0
-4 15 -24 33 -44 17 -21 42 -50 54 -65 94 -122 313 -305 468 -393 94 -54 144
-78 149 -72 3 3 6 0 6 -6 0 -7 6 -12 13 -12 7 0 31 -8 53 -19 85 -40 301 -103
403 -116 20 -3 61 -9 91 -14 70 -12 2318 -13 2380 -1 25 4 65 11 90 14 25 3
54 7 65 10 11 3 52 12 90 22 81 19 134 35 225 71 82 32 214 95 218 105 2 5 8
8 14 8 12 0 190 116 225 146 11 11 40 35 64 54 60 49 135 124 199 200 30 36
58 67 61 70 13 11 129 190 129 199 0 5 3 11 8 13 10 4 91 171 119 248 33 87
72 217 79 260 2 8 8 42 14 75 6 33 14 85 18 115 9 73 9 9032 0 9090 -7 44 -21
125 -33 185 -3 17 -9 39 -12 50 -4 11 -8 26 -9 32 -4 26 -45 149 -60 180 -7
17 -14 34 -14 38 0 31 -204 386 -239 415 -4 3 -25 28 -48 55 -60 72 -160 173
-223 225 -30 25 -57 48 -60 51 -15 19 -227 150 -303 186 -136 67 -291 124
-363 136 -10 1 -25 6 -32 11 -7 4 -16 6 -19 3 -3 -3 -15 -2 -27 3 -13 4 -47
11 -77 15 -30 4 -65 10 -79 13 -28 6 -2334 14 -2341 8z"/>
</g>
</svg>
